# xmcd
#
# Track frame offsets:
#	150
#	11995
#	24037
#	38892
#	60837
#	73037
#	83827
#	96552
#	107937
#	124642
#	138510
#	152115
#	164505
#	177862
#	192397
#	207072
#	227115
#	241772
#
# Disc length: 3415 seconds
#
# Revision: 0
# Processed by: cddbd v1.5.2PL0 Copyright (c) Steve Scherf et al.
# Submitted via: EZCDAudioConverter 1.3.4.1
#
DISCID=ef0d5512
DTITLE=V/A - The Harder They Come 2/2
DYEAR=2003
DGENRE=
TTITLE0=Desmond Dekker and The Aces - Israelites
TTITLE1=The Uniques - My Conversation
TTITLE2=The Maytals - Do The Reggay
TTITLE3=Jimmy Cliff - Viet Nam
TTITLE4=Johnny Nash - I Can See Clearly Now
TTITLE5=The Ethiopians - Reggae Hit The Town
TTITLE6=Dave and Ansel Collins - Double Barrel
TTITLE7=Desmond Dekker and The Aces - It Mek
TTITLE8=The Melodians - Sweet Sensation
TTITLE9=Jimmy Cliff - Let Your Yeah Be Yeah
TTITLE10=Eric Donaldson - Cherry Oh Baby
TTITLE11=Dave and Ansel Collins - Monkey Spanner
TTITLE12=The Maytals - 54-46 (That's My Number)
TTITLE13=The Melodians - It's My Delight
TTITLE14=Jimmy Cliff - Wonderful World, Beautiful People
TTITLE15=The Maytals - Pomp And Pride
TTITLE16=Johnny Nash - Guava Jelly
TTITLE17=Jimmy Cliff - The Bigger They Come The Harder They Fall
EXTD=
EXTT0=
EXTT1=
EXTT2=
EXTT3=
EXTT4=
EXTT5=
EXTT6=
EXTT7=
EXTT8=
EXTT9=
EXTT10=
EXTT11=
EXTT12=
EXTT13=
EXTT14=
EXTT15=
EXTT16=
EXTT17=
PLAYORDER=
